<?xml version="1.0" standalone="no"?>
<!DOCTYPE svg PUBLIC "-//W3C//DTD SVG 20010904//EN"
 "http://www.w3.org/TR/2001/REC-SVG-20010904/DTD/svg10.dtd">
<svg version="1.0" xmlns="http://www.w3.org/2000/svg"
 width="700.000000pt" height="700.000000pt" viewBox="0 0 700.000000 700.000000"
 preserveAspectRatio="xMidYMid meet">
<metadata>
Created by potrace 1.11, written by Peter Selinger 2001-2013
</metadata>
<g transform="translate(0.000000,700.000000) scale(0.100000,-0.100000)"
fill="#000000" stroke="none">
<path d="M3109 6411 c11 -19 9 -21 -16 -22 -15 -1 -41 -3 -58 -5 -16 -2 -139
-5 -272 -8 l-243 -5 -97 -52 c-87 -46 -320 -192 -333 -208 -3 -4 -18 -17 -35
-30 -24 -18 -26 -22 -10 -20 11 1 33 -3 48 -9 41 -17 65 -15 79 8 8 12 24 20
41 20 16 0 26 4 22 10 -3 6 -21 10 -39 10 -18 0 -40 6 -50 13 -15 11 -12 12
22 9 26 -3 44 1 55 12 17 18 67 22 67 6 0 -6 -7 -24 -15 -41 -15 -28 -15 -30
7 -38 13 -6 40 -13 61 -16 32 -5 43 -14 68 -53 46 -72 50 -71 100 18 41 76 60
93 74 70 14 -23 27 -9 21 21 -7 38 7 59 34 52 32 -8 23 7 -11 19 -24 8 -30 15
-27 36 3 29 43 46 65 29 8 -5 30 -3 60 7 26 8 91 18 143 21 52 3 122 8 155 12
33 3 80 7 105 7 25 1 51 5 57 9 7 5 21 3 30 -2 15 -9 13 -11 -12 -11 -26 -1
-27 -3 -10 -10 11 -5 30 -9 42 -9 15 -1 50 -29 98 -78 81 -84 80 -81 50 -162
-8 -24 -17 -60 -19 -80 -2 -24 -8 -37 -19 -39 -14 -3 -16 3 -11 45 3 26 8 54
10 62 3 8 -13 -6 -35 -31 -43 -49 -108 -85 -169 -94 -20 -3 -59 -16 -87 -30
-72 -35 -134 -54 -140 -44 -3 5 0 12 6 15 7 5 3 12 -10 21 -26 19 -50 7 -86
-41 -32 -41 -51 -48 -109 -40 -39 6 -46 11 -56 39 -9 25 -13 28 -20 16 -7 -11
-10 -3 -11 30 -1 25 -1 49 0 53 1 5 -2 6 -7 3 -5 -3 -8 -30 -7 -60 1 -31 -2
-56 -7 -56 -10 0 -10 1 -12 72 -3 76 -16 87 -16 14 0 -52 -1 -56 -16 -42 -37
38 -114 -3 -132 -72 -5 -20 -10 -28 -11 -17 -1 24 32 100 48 109 16 11 13 46
-5 53 -8 3 -20 1 -27 -6 -6 -6 -21 -11 -34 -11 -16 0 -23 -6 -23 -19 0 -11
-16 -27 -45 -42 -32 -17 -43 -28 -39 -39 4 -8 6 -25 6 -36 -1 -13 6 -24 17
-27 12 -3 22 -21 30 -52 7 -27 23 -62 37 -78 28 -34 32 -75 7 -83 -10 -3 -31
-12 -47 -20 -16 -8 -71 -17 -122 -21 -52 -3 -94 -9 -94 -13 0 -13 27 -30 34
-22 4 4 5 -9 1 -29 -6 -31 -3 -39 16 -53 l23 -16 -21 -15 c-11 -8 -24 -26 -27
-40 -4 -16 -13 -25 -25 -25 -11 0 -26 -6 -33 -13 -7 -7 -42 -27 -78 -44 -85
-42 -133 -83 -159 -136 -12 -24 -32 -54 -46 -67 -14 -13 -25 -28 -25 -33 0 -5
-19 -27 -43 -48 -24 -20 -54 -58 -68 -83 -13 -25 -27 -46 -31 -46 -15 0 -39
-63 -34 -85 3 -13 2 -26 -4 -30 -5 -3 -7 -12 -4 -20 5 -13 2 -13 -22 0 -16 8
-37 12 -46 9 -10 -3 -18 -1 -18 5 0 11 12 15 40 12 20 -2 -68 77 -100 90 -67
28 -185 1 -211 -48 -11 -20 -11 -28 3 -51 9 -15 25 -31 35 -37 10 -5 21 -14
25 -20 5 -6 12 -5 20 3 6 6 25 12 40 12 36 0 36 -20 3 -96 -27 -61 -26 -68 8
-70 12 -1 32 -2 44 -3 13 0 30 -12 39 -25 37 -58 -38 -84 -110 -39 -41 27
-176 76 -184 68 -3 -2 -6 -33 -9 -68 l-4 -64 33 -6 c46 -7 266 -171 274 -204
4 -14 -1 -53 -11 -87 -21 -72 -29 -236 -14 -292 6 -21 19 -48 29 -59 10 -11
32 -49 50 -85 32 -65 95 -149 137 -183 44 -35 72 -114 78 -222 15 -265 23
-340 46 -429 39 -151 64 -200 143 -272 69 -64 247 -203 284 -223 45 -24 122
75 122 155 -1 51 -20 87 -40 74 -42 -27 -60 11 -60 128 0 92 -11 130 -30 102
-8 -12 -10 -10 -10 9 0 13 -3 22 -6 19 -3 -4 -14 2 -25 13 -20 20 -54 25 -64
9 -3 -6 0 -13 8 -16 15 -5 16 -48 2 -106 -6 -20 -2 -29 13 -37 30 -16 37 0 41
87 0 19 5 31 11 27 5 -3 8 -16 6 -28 -3 -12 -5 -75 -5 -140 l-1 -117 -26 -11
c-21 -7 -31 -6 -44 6 -9 8 -20 15 -25 15 -4 0 -27 15 -50 34 -42 35 -66 84
-95 196 -7 25 -20 56 -30 70 -23 33 -38 104 -45 220 -4 52 -8 111 -9 130 -12
145 -20 208 -26 225 -4 11 -3 30 3 42 14 30 1 72 -26 82 -22 9 -109 93 -145
141 -10 14 -25 41 -32 60 -8 19 -36 63 -62 98 -26 35 -48 72 -48 83 0 37 53
240 60 229 9 -14 23 4 38 46 6 19 6 37 1 45 -7 11 -10 9 -15 -8 -8 -29 -24
-30 -24 -2 0 11 -5 29 -10 40 -13 23 2 26 20 4 22 -27 28 -16 15 28 -8 27 -19
43 -31 45 -36 7 -37 21 -3 30 42 11 50 7 45 -24 -5 -27 20 -35 30 -9 3 8 24
28 45 44 31 23 36 30 23 35 -9 3 -35 -2 -57 -12 -25 -11 -54 -16 -72 -12 -26
5 -33 13 -58 80 -43 116 -60 152 -85 182 l-23 27 60 -22 c39 -14 57 -25 51
-31 -15 -15 -11 -67 9 -111 23 -51 37 -63 88 -71 35 -5 42 -3 45 12 2 11 18
21 48 28 41 10 45 14 43 39 l-2 28 30 -21 c16 -12 34 -30 39 -40 5 -10 20 -22
31 -25 31 -10 5 -25 -44 -25 -43 0 -81 -16 -72 -31 4 -5 21 -9 38 -9 18 0 57
-7 87 -15 30 -8 76 -15 101 -15 39 0 52 -5 83 -35 21 -19 42 -35 47 -35 5 0 9
-6 9 -12 0 -25 17 -39 51 -44 87 -12 169 -76 169 -133 0 -29 43 -71 74 -71 14
0 29 -6 33 -14 10 -17 118 -50 139 -42 8 3 29 -8 48 -24 18 -17 43 -30 55 -30
20 0 21 -5 21 -79 0 -43 -4 -91 -9 -107 -10 -29 -19 -87 -22 -134 l-1 -25 -7
25 c-12 45 -34 30 -37 -25 -2 -64 -21 -135 -42 -159 -10 -10 -39 -29 -66 -43
-56 -28 -96 -65 -96 -88 0 -12 4 -14 19 -5 28 15 30 13 25 -22 l-4 -33 24 29
c12 16 27 26 33 23 17 -10 106 75 135 130 21 37 27 64 29 118 2 77 16 134 19
80 1 -16 2 -43 1 -60 -2 -43 11 -19 53 99 52 143 49 195 -22 346 l-26 55 -6
-58 -5 -57 -40 35 c-50 43 -106 70 -167 79 -35 5 -51 14 -64 34 -22 33 -27 55
-11 49 43 -18 47 -18 47 -6 0 12 -32 49 -113 131 -21 21 -63 51 -95 67 -31 15
-97 53 -145 84 -48 31 -111 63 -140 73 -29 9 -55 22 -59 28 -4 6 -6 30 -4 53
4 56 -20 94 -86 137 -65 42 -85 63 -92 99 -7 38 9 72 61 131 24 26 43 54 43
61 0 6 9 20 20 30 11 10 20 28 20 41 0 24 92 114 145 141 23 12 15 0 -35 -53
l-65 -68 55 45 c104 86 186 132 354 199 108 42 130 55 166 92 54 58 59 129 15
233 -10 22 -18 69 -19 105 -1 60 1 65 26 79 28 16 28 16 85 -48 l58 -63 44 12
c23 6 49 9 55 7 7 -3 33 5 59 18 44 23 218 82 266 91 24 5 156 -30 176 -46 10
-8 63 -13 115 -11 14 1 38 12 54 26 24 21 30 35 34 78 2 28 -1 72 -6 96 -12
50 4 116 27 116 21 0 90 86 101 126 12 42 5 101 -16 141 -35 68 -149 108 -328
115 l-128 6 11 -22z m-21 -96 c3 -3 -1 -5 -9 -5 -8 0 -25 -3 -39 -7 -22 -6
-23 -5 -12 10 12 14 47 16 60 2z m-734 -96 c-7 -12 -41 -12 -49 0 -6 11 23 20
42 13 7 -2 10 -8 7 -13z m120 -631 c-9 -15 -21 -8 -32 17 -17 37 -15 40 12 14
14 -13 22 -27 20 -31z m-759 -1088 c13 -6 15 -9 5 -9 -8 0 -22 4 -30 9 -18 12
-2 12 25 0z m-165 -255 c0 -13 -4 -14 -22 -4 -34 17 -34 19 -5 19 18 0 27 -5
27 -15z m23 -583 c20 -28 38 -60 41 -70 3 -9 24 -36 45 -59 46 -48 76 -91 69
-99 -3 -2 -25 21 -48 53 -24 32 -46 60 -49 63 -32 27 -89 112 -95 139 -7 41
-8 41 37 -27z"/>
<path d="M4135 6180 c-4 -6 12 -10 42 -10 35 0 44 3 33 10 -20 13 -67 13 -75
0z"/>
<path d="M4035 6160 c-8 -13 45 -13 65 0 11 7 6 10 -22 10 -20 0 -40 -4 -43
-10z"/>
<path d="M4733 6130 c-13 -5 -23 -11 -23 -13 0 -2 10 -3 23 -1 12 1 31 3 42 3
17 1 17 3 5 11 -18 11 -18 11 -47 0z"/>
<path d="M4886 6131 c-4 -5 -2 -12 3 -15 5 -4 12 -2 15 3 4 5 2 12 -3 15 -5 4
-12 2 -15 -3z"/>
<path d="M4419 6114 c45 -20 142 -24 206 -9 57 14 70 12 -130 20 -106 4 -109
4 -76 -11z"/>
<path d="M2635 6111 c-6 -10 14 -83 26 -95 5 -6 9 -21 9 -34 0 -31 18 -19 36
25 13 30 13 38 -2 68 -9 19 -19 35 -23 36 -3 0 -14 2 -23 4 -10 2 -20 0 -23
-4z"/>
<path d="M4740 6088 c0 -14 48 -13 64 3 6 5 -5 8 -27 7 -20 -1 -37 -5 -37 -10z"/>
<path d="M3250 6066 c0 -15 24 -28 34 -19 13 14 5 33 -14 33 -11 0 -20 -6 -20
-14z"/>
<path d="M4435 6070 c20 -33 158 -36 241 -6 l39 15 -60 -5 c-120 -10 -171 -11
-198 -3 -15 4 -25 4 -22 -1z"/>
<path d="M2060 6043 c0 -12 9 -27 20 -33 25 -13 25 -2 0 30 -19 25 -20 25 -20
3z"/>
<path d="M4065 6034 c-38 -14 -74 -30 -79 -35 -6 -5 -19 -9 -30 -9 -12 0 -32
-15 -46 -35 -14 -19 -49 -55 -78 -80 -59 -52 -93 -105 -67 -105 8 0 15 4 15
10 0 5 19 19 41 31 23 11 67 46 98 77 84 85 138 119 207 127 32 3 61 7 64 8 3
1 44 -11 92 -26 110 -35 117 -37 208 -44 41 -3 82 -12 91 -19 13 -12 19 -11
38 7 18 17 37 21 111 24 48 1 93 6 98 9 6 3 32 9 59 12 26 3 49 6 50 7 0 1 -1
14 -4 29 -4 23 -8 26 -24 18 -19 -11 -76 -23 -159 -35 -25 -3 -61 -10 -80 -14
-36 -8 -166 -7 -210 2 -14 3 -72 18 -130 33 -144 37 -181 38 -265 8z"/>
<path d="M2612 6013 c1 -24 6 -43 10 -43 10 0 9 39 -2 65 -7 15 -9 10 -8 -22z"/>
<path d="M2152 5998 c-7 -7 -12 -19 -12 -28 0 -9 -9 -25 -20 -35 -24 -22 -17
-35 19 -35 20 0 30 -6 34 -20 3 -11 11 -20 19 -20 11 0 11 2 0 9 -10 6 -6 10
15 14 44 9 77 42 69 71 -6 24 -38 42 -63 38 -7 -2 -21 2 -31 7 -13 7 -23 6
-30 -1z"/>
<path d="M3182 5965 c-30 -14 -60 -25 -68 -25 -28 0 -13 -19 20 -25 39 -8 78
9 115 49 23 24 23 26 5 26 -10 0 -43 -11 -72 -25z"/>
<path d="M5081 5944 c-16 -35 0 -51 24 -24 17 18 17 22 4 36 -14 13 -17 12
-28 -12z"/>
<path d="M3017 5897 c-26 -16 -46 -31 -44 -33 7 -7 75 17 87 31 25 30 3 31
-43 2z"/>
<path d="M2030 5885 c15 -16 27 -22 33 -16 14 14 -10 41 -36 41 -20 0 -20 -1
3 -25z"/>
<path d="M4104 5868 c-58 -45 -87 -99 -65 -121 13 -13 15 -47 2 -47 -15 0 -55
-86 -48 -104 6 -14 15 -16 54 -10 58 8 73 19 73 50 0 16 8 28 25 36 14 6 25
15 25 19 0 18 34 39 65 39 34 0 55 15 33 23 -7 2 -41 2 -75 -1 -59 -4 -63 -3
-72 19 -10 30 -4 48 26 74 49 43 9 63 -43 23z"/>
<path d="M1903 5854 c-31 -16 -45 -44 -23 -44 17 0 65 27 79 44 11 14 11 16
-5 16 -11 0 -34 -8 -51 -16z"/>
<path d="M2120 5831 c0 -14 18 -23 56 -28 29 -4 34 -2 34 16 0 18 -6 21 -45
21 -25 0 -45 -4 -45 -9z"/>
<path d="M3608 5787 c-32 -17 -58 -35 -58 -40 0 -5 7 -6 16 -3 9 3 29 6 45 6
31 0 69 30 69 55 0 20 -4 18 -72 -18z"/>
<path d="M1917 5796 c-49 -15 -107 -68 -107 -99 0 -13 13 -35 28 -50 35 -34
73 -29 126 14 39 33 56 85 38 123 -11 25 -31 28 -85 12z"/>
<path d="M1758 5767 c-15 -12 -37 -29 -50 -38 -20 -14 -21 -19 -10 -43 9 -20
19 -26 42 -26 27 0 33 6 49 43 33 76 34 87 14 87 -10 0 -30 -11 -45 -23z"/>
<path d="M3723 5717 c-17 -23 -42 -53 -54 -66 -22 -23 -22 -24 -4 -37 28 -21
59 -17 89 11 24 22 26 30 21 67 -3 24 -7 49 -7 56 -2 20 -11 14 -45 -31z"/>
<path d="M2945 5704 c-56 -46 -145 -84 -196 -84 -51 0 -139 28 -168 53 -11 10
-23 12 -38 6 -27 -10 -28 -22 -7 -80 9 -25 16 -79 17 -124 3 -141 -41 -196
-188 -236 -94 -25 -144 -49 -180 -85 -58 -58 2 -58 170 0 145 51 194 80 231
136 24 36 28 53 32 143 2 56 9 107 14 114 6 7 31 11 66 9 127 -5 228 30 298
104 60 63 62 70 17 70 -25 -1 -48 -9 -68 -26z"/>
<path d="M3490 5693 c-35 -21 -91 -99 -95 -131 -2 -15 8 -49 21 -75 14 -27 26
-65 28 -85 4 -39 -16 -102 -33 -102 -5 0 -13 -10 -16 -22 -14 -48 -30 -78 -42
-78 -16 0 -14 12 -22 -105 -8 -106 -11 -113 -93 -224 -33 -45 -59 -89 -100
-171 -20 -39 -22 -59 -21 -155 1 -60 4 -119 7 -130 2 -11 5 -24 5 -29 1 -14
15 2 18 22 1 9 4 28 7 42 2 14 5 31 5 39 1 10 4 11 15 2 24 -20 40 12 31 62
-4 23 -8 61 -9 83 -1 50 41 147 61 140 14 -6 53 39 53 62 0 9 8 24 18 35 9 10
25 38 35 60 l18 42 -5 -48 c-3 -41 -2 -45 9 -30 7 10 18 35 26 56 7 22 22 43
31 48 10 5 18 21 18 34 0 13 5 27 10 30 16 10 1 25 -25 25 -19 0 -24 6 -27 33
-2 17 2 46 9 62 6 17 14 42 17 57 4 18 13 28 28 30 18 2 30 21 58 88 34 81 36
85 68 87 51 2 75 10 102 35 60 56 138 96 200 103 14 2 28 3 33 4 13 2 7 42
-14 82 -17 34 -24 40 -42 34 -12 -4 -32 -9 -44 -12 -21 -5 -33 -29 -33 -69 0
-29 -17 -40 -68 -47 -38 -5 -46 -2 -73 26 -17 18 -36 44 -44 58 -13 24 -35 35
-85 45 -8 2 -26 -4 -40 -13z m132 -121 c45 -43 55 -58 47 -69 -16 -18 -77 -16
-97 3 -15 15 -15 19 1 46 18 32 15 48 -9 48 -8 0 -14 2 -14 4 0 2 -3 12 -7 22
-9 25 10 11 79 -54z"/>
<path d="M3371 5665 c-23 -13 -47 -27 -51 -32 -18 -18 -17 -76 1 -170 26 -132
25 -151 -6 -163 -14 -5 -25 -13 -26 -17 -9 -86 -12 -118 -13 -173 0 -36 3 -73
7 -82 7 -12 3 -17 -14 -20 -25 -3 -42 -38 -29 -58 7 -12 12 -11 27 3 26 23 45
105 44 185 -1 76 21 151 58 193 30 34 33 61 14 114 -28 77 -26 128 7 189 16
31 28 56 27 55 -1 -1 -22 -11 -46 -24z"/>
<path d="M1867 5593 c-2 -5 -3 -24 -3 -43 1 -30 4 -35 25 -35 19 0 25 6 26 25
2 14 -2 33 -7 43 -9 17 -34 23 -41 10z"/>
<path d="M3567 5351 c-31 -52 -13 -86 32 -61 24 12 27 46 7 73 -17 22 -19 22
-39 -12z"/>
<path d="M4353 5338 c-48 -50 -56 -81 -32 -112 23 -30 47 -33 89 -11 31 16 44
17 132 10 31 -3 59 -1 62 4 11 17 -7 43 -38 56 -20 9 -34 24 -41 46 -12 35
-27 42 -57 27 -10 -5 -14 -15 -11 -28 7 -28 -6 -25 -42 10 l-31 30 -31 -32z"/>
<path d="M2065 5305 c-16 -9 -43 -30 -59 -48 -23 -26 -25 -33 -12 -35 21 -4
108 46 101 58 -3 5 -1 11 5 15 12 7 14 25 3 25 -5 0 -21 -7 -38 -15z"/>
<path d="M3951 5306 c-10 -11 -4 -22 27 -53 36 -36 49 -64 27 -62 -17 2 -117
72 -122 86 -8 19 -51 16 -89 -8 -19 -11 -38 -18 -43 -15 -15 9 -101 -76 -125
-125 l-24 -46 35 2 c20 2 39 8 43 15 5 8 9 4 13 -11 6 -23 21 -23 142 -4 48 8
60 -6 64 -76 1 -12 11 -14 56 -11 35 2 55 0 55 -7 0 -6 -12 -11 -27 -11 l-28
-1 34 -28 c26 -21 44 -28 72 -27 25 1 35 -2 32 -10 -6 -17 16 -29 29 -16 16
16 -8 42 -37 42 -13 0 -33 8 -46 19 -22 18 -22 18 37 10 32 -4 88 -11 124 -15
40 -4 74 -14 89 -25 17 -14 33 -17 65 -13 22 3 56 7 74 9 18 1 35 5 37 7 10
10 -18 80 -41 103 -25 25 -44 32 -99 37 -24 2 -31 8 -33 28 -6 55 -13 70 -41
84 -36 19 -51 5 -44 -38 6 -40 -15 -61 -54 -53 -52 10 -103 32 -103 44 0 17
14 23 30 13 8 -5 19 -5 26 1 21 17 -7 79 -51 111 -22 16 -44 36 -48 44 -10 18
-41 18 -56 0z m139 -116 c13 -8 13 -10 -2 -10 -9 0 -20 5 -23 10 -8 13 5 13
25 0z m185 -98 c-3 -3 -11 0 -18 7 -9 10 -8 11 6 5 10 -3 15 -9 12 -12z"/>
<path d="M1922 5183 c-17 -19 -26 -23 -31 -14 -11 16 -36 5 -51 -25 -7 -13
-21 -24 -31 -24 -21 0 -39 -29 -39 -62 0 -24 -112 -138 -136 -138 -18 0 -27
-17 -29 -57 -3 -55 26 -41 123 65 88 95 122 149 122 193 0 5 4 8 9 5 4 -3 16
3 25 13 10 11 28 22 41 25 12 3 25 15 28 26 7 27 -3 25 -31 -7z"/>
<path d="M3523 5073 c9 -2 25 -2 35 0 9 3 1 5 -18 5 -19 0 -27 -2 -17 -5z"/>
<path d="M4492 5018 c-2 -41 -1 -42 13 -23 17 21 16 56 -1 62 -6 2 -11 -15
-12 -39z"/>
<path d="M1410 4880 c0 -5 9 -15 21 -23 16 -11 29 -12 60 -4 48 12 46 15 -12
23 -24 3 -50 7 -56 9 -7 3 -13 0 -13 -5z"/>
<path d="M4841 4877 c-8 -10 -3 -25 18 -59 16 -25 36 -48 45 -51 9 -4 21 -18
26 -32 12 -32 54 -34 87 -4 18 18 25 20 38 9 8 -7 15 -19 15 -26 0 -8 16 -21
36 -29 33 -13 36 -18 31 -44 -7 -33 -58 -120 -71 -121 -21 0 -98 -46 -107 -62
-5 -10 -15 -18 -22 -18 -7 0 -38 -12 -67 -27 -30 -15 -72 -27 -92 -28 -34 0
-38 -3 -38 -26 0 -34 29 -59 68 -59 27 0 82 -34 104 -64 3 -5 14 8 23 30 15
38 15 40 -5 56 -20 16 -20 18 -4 52 15 31 51 53 76 48 4 -1 10 9 14 22 4 17
15 26 38 30 37 7 51 19 107 96 60 83 83 91 145 55 42 -25 124 -107 124 -125 0
-6 -27 17 -59 50 -32 33 -66 61 -75 61 -60 5 -75 1 -103 -30 -15 -16 -39 -51
-53 -77 -23 -44 -30 -50 -65 -54 -35 -4 -40 -8 -43 -34 -2 -16 -10 -35 -18
-43 -8 -8 -14 -21 -14 -28 0 -8 -19 -53 -41 -102 -64 -136 -99 -214 -99 -220
0 -3 16 13 36 36 20 23 40 39 43 35 3 -3 6 -22 7 -42 0 -31 -9 -48 -60 -107
-34 -38 -63 -72 -66 -75 -31 -31 -28 -39 5 -14 22 16 53 35 69 42 16 7 37 24
48 37 11 14 25 25 32 25 24 0 43 35 45 85 l3 50 -37 -35 -37 -35 16 32 c10 20
26 34 43 37 l28 7 1 115 c1 132 14 163 75 176 40 8 106 11 133 5 11 -2 31 2
45 9 34 18 42 7 30 -45 -13 -57 -4 -80 32 -88 35 -7 53 -27 46 -52 -5 -22 10
-31 52 -31 19 0 32 -8 41 -24 13 -26 48 -40 74 -30 8 3 18 21 22 40 6 33 6 33
35 18 16 -8 29 -20 29 -27 0 -6 4 -18 9 -26 8 -12 12 -12 25 -2 9 8 16 22 16
33 0 11 4 16 11 12 16 -10 29 17 18 38 -12 23 -26 23 -32 1 -3 -12 -5 -10 -5
7 -1 14 5 36 13 50 8 14 14 19 15 13 0 -7 9 -13 21 -13 21 0 21 0 2 -47 -3 -7
0 -13 6 -13 6 0 14 13 17 30 6 28 9 29 50 27 24 -1 45 2 47 8 8 20 -11 267
-22 277 -3 4 -34 -19 -67 -51 -52 -49 -63 -67 -74 -112 -8 -30 -13 -63 -12
-73 0 -10 -5 -27 -12 -38 -12 -17 -15 -17 -51 12 -21 16 -41 30 -46 30 -5 0
-13 19 -20 43 -6 23 -23 62 -37 87 -15 25 -25 45 -23 45 2 0 -2 24 -9 53 -9
32 -19 52 -28 52 -19 0 -100 60 -134 99 -25 30 -30 31 -102 31 -52 0 -98 7
-148 24 -40 13 -88 27 -105 30 -18 4 -44 22 -59 39 -40 48 -60 59 -73 44z
m617 -452 c-2 -12 -7 -7 -15 16 -12 30 -11 32 3 17 9 -8 14 -23 12 -33z"/>
<path d="M1300 4862 c-44 -3 -70 -21 -70 -48 0 -8 18 -6 62 7 71 23 69 21 60
34 -4 6 -27 9 -52 7z"/>
<path d="M4482 4811 c-11 -6 2 -39 56 -147 58 -116 80 -149 133 -201 35 -34
65 -61 67 -59 10 11 -21 93 -44 117 -15 16 -24 29 -19 29 5 0 -5 15 -22 33
-18 17 -35 46 -39 62 -4 17 -18 46 -31 65 -83 124 -76 117 -101 101z"/>
<path d="M1508 4793 c6 -2 18 -2 25 0 6 3 1 5 -13 5 -14 0 -19 -2 -12 -5z"/>
<path d="M1180 4567 c0 -21 5 -27 22 -27 21 0 21 0 2 23 -10 12 -20 24 -21 26
-2 2 -3 -8 -3 -22z"/>
<path d="M3150 4362 c0 -21 30 -79 59 -116 22 -27 31 -49 30 -70 -3 -48 8 -72
51 -101 39 -27 51 -45 29 -45 -21 0 -3 -23 21 -26 14 -2 34 -5 45 -6 12 -2 21
4 23 15 3 12 -5 19 -27 23 -33 7 -37 14 -20 31 7 7 24 7 57 -4 54 -16 84 -17
240 -9 l112 7 0 -45 c0 -28 10 -68 26 -103 54 -117 81 -206 76 -253 -2 -25 -4
-94 -5 -155 -1 -108 17 -197 63 -310 10 -26 13 -27 19 -12 5 14 10 5 20 -32 8
-31 22 -59 37 -70 13 -10 24 -24 24 -30 0 -10 13 -15 32 -13 3 1 9 -5 12 -14
3 -9 2 -12 -5 -8 -7 4 -9 -4 -7 -22 6 -53 114 -85 202 -60 75 22 93 38 79 69
-9 19 -9 28 0 39 18 22 71 53 85 50 6 -2 12 1 12 6 0 5 18 30 40 55 22 24 41
53 43 63 6 43 33 59 39 23 3 -20 4 -20 25 5 l23 26 -25 0 c-36 0 -33 35 5 55
43 22 55 19 89 -22 36 -44 39 -57 11 -48 -26 8 -25 -5 3 -31 52 -49 91 -55
144 -23 25 16 31 24 22 30 -7 4 -18 5 -24 1 -5 -3 -4 2 4 11 19 24 7 33 -24
19 -42 -19 -53 -14 -74 30 -18 40 -18 45 -4 78 24 56 26 69 13 85 -18 22 -25
19 -28 -12 -3 -34 -17 -50 -19 -22 -2 26 -6 30 -32 32 -11 1 -21 7 -21 14 0
18 -57 -4 -75 -30 -9 -12 -23 -22 -33 -22 -17 0 -19 -7 -21 -97 -1 -48 -37
-70 -156 -93 -49 -9 -97 -18 -105 -20 -100 -21 -223 -45 -225 -45 -10 0 -28
70 -26 107 1 32 -5 56 -21 82 -15 23 -23 53 -24 86 0 27 -10 70 -21 95 -19 44
-18 84 2 79 16 -3 35 43 30 71 -3 14 -7 39 -10 55 -8 41 -24 94 -40 130 -40
87 -57 147 -51 175 3 17 1 41 -4 55 -6 15 -6 26 0 30 6 4 6 14 -1 26 -10 20
-24 18 -24 -3 0 -6 -8 -12 -18 -14 -29 -4 -30 -11 -2 -18 23 -6 36 -26 16 -26
-23 0 -56 26 -53 42 5 26 -44 35 -68 13 -19 -18 -20 -17 -20 9 0 39 -23 42
-90 10 -70 -34 -77 -53 -20 -50 23 1 43 -1 46 -5 2 -4 -31 -7 -74 -6 -63 2
-83 6 -106 25 -16 12 -39 22 -52 22 -19 0 -24 5 -24 25 0 59 -35 93 -111 109
-15 3 -35 21 -50 43 -22 35 -69 58 -69 35z m777 -724 c-3 -8 -6 -5 -6 6 -1 11
2 17 5 13 3 -3 4 -12 1 -19z"/>
<path d="M3670 4320 c-9 -17 -8 -20 10 -20 11 0 20 6 20 14 0 24 -18 28 -30 6z"/>
<path d="M1160 4256 c0 -3 9 -10 20 -16 11 -6 20 -8 20 -6 0 3 -9 10 -20 16
-11 6 -20 8 -20 6z"/>
<path d="M3655 4240 c-3 -4 6 -15 20 -24 24 -16 25 -15 25 3 0 19 -36 36 -45
21z"/>
<path d="M1261 4187 c2 -1 15 -11 29 -22 l25 -20 -19 23 c-11 12 -24 22 -29
22 -6 0 -8 -1 -6 -3z"/>
<path d="M4864 4154 c-8 -20 -13 -39 -10 -42 3 -3 6 -3 6 0 0 3 7 22 15 42 8
20 13 36 10 36 -3 0 -13 -16 -21 -36z"/>
<path d="M1364 4089 c8 -19 17 -43 21 -54 6 -20 7 -20 21 -1 18 26 18 26 -22
60 l-35 29 15 -34z"/>
<path d="M4825 4070 c-11 -4 -34 -23 -51 -41 -17 -19 -42 -43 -55 -53 l-23
-19 21 -10 c30 -13 67 -2 104 31 25 22 30 33 27 63 -3 32 -6 35 -23 29z"/>
<path d="M3474 4000 c-30 -12 -40 -30 -16 -30 10 0 27 9 37 20 19 21 13 24
-21 10z"/>
<path d="M1359 3963 c-17 -52 -14 -154 5 -192 21 -39 27 -40 16 -1 -8 28 -4
191 5 218 2 6 0 12 -5 12 -4 0 -14 -16 -21 -37z"/>
<path d="M4666 3907 c-13 -9 -17 -24 -14 -52 2 -21 8 -40 13 -42 9 -3 61 76
53 81 -2 1 -10 7 -19 14 -12 9 -19 9 -33 -1z"/>
<path d="M4730 3858 c-11 -18 -21 -46 -21 -63 -1 -16 -3 -43 -4 -60 -2 -16 -3
-39 -4 -50 -2 -26 -31 51 -31 83 0 25 -9 28 -34 9 -13 -10 -16 -20 -12 -35 4
-12 10 -22 14 -22 4 0 6 -47 5 -105 -1 -61 2 -107 8 -111 19 -11 49 28 50 65
0 20 3 29 6 21 11 -30 37 -50 65 -50 33 0 34 -4 8 -30 -11 -11 -20 -26 -20
-32 0 -7 13 2 29 20 15 19 39 39 52 46 14 6 25 22 27 37 2 21 -4 28 -46 45
-53 23 -81 55 -83 95 -1 35 9 126 16 149 10 30 -3 24 -25 -12z"/>
<path d="M1390 3703 c0 -31 40 -100 64 -111 22 -10 23 -9 18 11 -5 21 -69 117
-78 117 -2 0 -4 -8 -4 -17z"/>
<path d="M4890 3670 c-15 -9 -5 -15 40 -25 30 -7 33 -6 22 8 -16 19 -46 27
-62 17z"/>
<path d="M1480 3554 c0 -22 37 -81 55 -87 18 -7 10 14 -23 66 -27 41 -32 44
-32 21z"/>
<path d="M2608 3278 c-69 -104 -285 -433 -330 -503 l-20 -30 27 30 c59 67 114
144 154 213 22 41 41 76 41 78 0 16 87 129 134 175 46 45 57 63 65 102 4 26 7
47 6 47 -2 0 -36 -51 -77 -112z"/>
<path d="M1640 3326 c0 -8 9 -24 20 -37 l20 -24 -4 30 c-2 17 -5 33 -5 38 -2
13 -31 7 -31 -7z"/>
<path d="M1681 3047 c-1 -178 5 -227 29 -227 14 0 -1 282 -20 375 -5 26 -8
-25 -9 -148z"/>
<path d="M2458 3120 c-17 -27 -32 -50 -34 -50 -2 0 3 20 10 45 13 42 13 45 -4
45 -19 0 -23 -8 -35 -69 -4 -19 -15 -42 -24 -52 -9 -10 -27 -38 -39 -61 l-22
-43 28 34 c15 19 35 44 46 55 18 21 18 21 4 -4 -8 -14 -21 -36 -29 -50 -8 -14
-16 -27 -19 -30 -3 -3 -27 -39 -54 -80 -44 -68 -46 -72 -16 -45 52 48 246 355
225 355 -3 0 -20 -22 -37 -50z"/>
<path d="M4744 3139 c-5 -8 6 -11 41 -11 30 0 38 2 31 9 -11 11 -65 12 -72 2z"/>
<path d="M2353 3083 c-15 -5 -18 -53 -4 -53 9 0 21 23 27 48 2 13 -3 14 -23 5z"/>
<path d="M2257 2953 c-12 -11 -8 -31 7 -36 8 -3 18 5 25 19 9 21 8 24 -8 24
-10 0 -21 -3 -24 -7z"/>
<path d="M2177 2852 c-21 -23 -22 -56 -1 -77 11 -11 20 -13 28 -5 7 5 15 8 17
5 3 -2 6 6 6 17 1 12 11 34 23 50 l21 28 -39 0 c-25 0 -45 -7 -55 -18z"/>
<path d="M1716 2753 c3 -37 34 -84 34 -53 0 27 -21 90 -29 90 -5 0 -7 -17 -5
-37z"/>
<path d="M2133 2563 c-15 -5 -17 -61 -4 -82 13 -20 25 5 27 52 1 37 -1 40 -23
30z"/>
<path d="M3388 2525 c-1 -1 -25 -6 -53 -10 -107 -14 -226 -55 -335 -117 -423
-239 -616 -749 -459 -1211 85 -247 271 -459 504 -575 64 -31 167 -72 195 -77
3 0 37 -7 75 -15 76 -15 253 -19 325 -8 218 34 398 121 550 265 126 118 203
234 260 392 50 136 62 206 62 356 -2 483 -350 897 -834 989 -63 12 -280 21
-290 11z m323 -287 c0 -7 1 -122 1 -255 -1 -221 1 -243 16 -244 9 0 122 -1
250 -2 l232 0 0 -219 c0 -167 -3 -218 -12 -219 -7 0 -110 -1 -228 0 -118 0
-225 -2 -237 -5 -21 -4 -22 -6 -21 -212 0 -114 -1 -228 -1 -253 l-1 -46 -211
1 -211 1 -2 255 -1 255 -245 1 -245 1 -3 220 -2 220 241 -1 c132 -1 245 1 249
4 5 3 9 113 9 245 0 132 0 246 0 253 1 9 50 12 211 12 161 0 210 -3 211 -12z"/>
</g>
</svg>
